<svg xmlns="http://www.w3.org/2000/svg" viewBox="0 0 64 64" role="img" aria-label="Crazy Stickers icon">
  <defs>
    <linearGradient id="favicon-bg" x1="10" y1="6" x2="54" y2="58" gradientUnits="userSpaceOnUse">
      <stop offset="0" stop-color="#f8fbff" />
      <stop offset="1" stop-color="#dceeff" />
    </linearGradient>
  </defs>
  <rect x="4" y="4" width="56" height="56" rx="18" fill="url(#favicon-bg)" />
  <rect x="6.5" y="6.5" width="51" height="51" rx="15.5" fill="none" stroke="#b7d0e7" stroke-width="1.5" />
  <g transform="translate(20 14) scale(6)">
    <path d="M -2.2626879949364804 -1.529126692406197 C -2.7629929119947336 -1.529126692406197 -3.168567370877803 -1.2521666505657727 -3.168567370877803 -0.5064096412237247 C -3.1682819492338377 -0.4704565064403432 -3.166109560912881 -0.43454313443596004 -3.162059171461186 -0.3988177413442682 C -2.9303466112791376 -0.6231956640885511 -2.6129944111546375 -0.7190624745428269 -2.2626879949364795 -0.7190624745428269 C -1.9123815787183216 -0.7190624745428269 -1.5950293785938214 -0.6230407069595828 -1.3633168184117723 -0.39881774134427617 C -1.3592407253335996 -0.43454089685648056 -1.357068254712054 -0.4704556294333051 -1.3568086189951565 -0.506409641223726 C -1.3568086189951565 -1.2523216076947383 -1.762383077878226 -1.529126692406197 -2.2626879949364804 -1.529126692406197 Z" fill="#102036"/>
    <path d="M -2.239341120838779 -1.5280419925034274 C -1.760678549459589 -1.511100013069697 -1.3801038407165351 -1.228458209833814 -1.3801038407165351 -0.5059447698368227 C -1.4478201060751323 1.0719836744345588 -3.5760013153084778 2.1504336396688433 -4.125324337496638 3.729550088595638 L -3.5906705901840237 4.315391340843698 C -2.957050889837792 2.883587469188237 -0.8725675909731536 1.7846831629303028 -0.8957078555655653 0.04079563353522042 C -0.8957078555655653 -1.0807324135519014 -1.4931708924861535 -1.5112033178223419 -2.239341120838779 -1.5283002543850408 Z" fill="#3682ae"/>
    <path d="M -2.186862306495275 1.1752367747029298 C -2.419297999945836 1.4529716021881898 -2.6794710194814986 1.7261610205570834 -2.934478801384926 2.003482629031765 C -2.842950790541727 2.117117856940929 -2.7475488514743525 2.226775851873271 -2.650080817354083 2.33106199966809 C -2.5478607646121585 2.4443873133193197 -2.4434713120646947 2.557144450831003 -2.3391851642698755 2.6700565454716543 C -2.0824728539478112 2.39288989412594 -1.8256572388731014 2.1130373192114633 -1.601176011376181 1.8212013929902025 C -1.7882609184157219 1.6116993546267624 -1.99244276201796 1.3985299975444359 -2.186862306495275 1.1752367747029298 Z" fill="#102036"/>
    <path d="M -2.2859832166578586 -1.5280419925034274 C -3.0322050973868064 -1.5109450559407314 -3.6296164819310732 -1.0804741516702894 -3.6296164819310732 0.0410538954168338 C -3.652808398899807 1.7846831629303028 -1.5682734476588465 2.883587469188237 -0.9345504425599693 4.315391340843698 L -0.39989669524735527 3.729343479090348 C -0.9492197174355166 2.1501753777872303 -3.077400926668861 1.0717254125529463 -3.1451171920274588 -0.5061513793421126 C -3.1451171920274588 -1.2288197764680708 -2.7645424832844054 -1.511306622574987 -2.285879911905214 -1.5283002543850408 Z" fill="#a5b2ba"/>
  </g>
</svg>
